<?xml version="1.0" encoding="iso-8859-1"?>
<!-- Generator: Adobe Illustrator 19.0.0, SVG Export Plug-In . SVG Version: 6.00 Build 0)  -->
<svg version="1.1" id="Capa_1" xmlns="http://www.w3.org/2000/svg" xmlns:xlink="http://www.w3.org/1999/xlink" x="0px" y="0px"
	 viewBox="0 0 512 512" style="enable-background:new 0 0 512 512;" xml:space="preserve">
<g>
	<g>
		<path d="M512,230.04v-54.255c0-14.817-12.055-26.873-26.872-26.873H335.194l-4.222-4.222c-0.425-0.425-0.883-0.795-1.359-1.127
			c-3.138-3.175-7.136-5.544-11.716-6.686l-40.871-10.194c-2.304-0.575-4.634-0.814-6.935-0.737
			c-0.087-0.002-0.171-0.013-0.258-0.013h-23.334c-22.939,0-45.117,8.162-62.598,22.979H26.873C12.055,148.913,0,160.967,0,175.785
			v54.255c0,14.817,12.055,26.872,26.873,26.872h68.19l-27.364,27.364c-3.905,3.905-3.905,10.237,0,14.143l46.314,46.314
			c1.875,1.875,4.419,2.929,7.071,2.929c2.652,0,5.196-1.054,7.071-2.929l78.114-78.114c12.697,8.601,27.728,13.271,43.209,13.271
			h21.353c0.031,0,0.063,0.004,0.094,0.004c2.029,0,4.076-0.248,6.101-0.753l40.872-10.194c4.1-1.022,7.74-3.023,10.71-5.708
			l28.745,28.744c1.953,1.952,4.512,2.929,7.071,2.929s5.119-0.977,7.071-2.929c3.905-3.905,3.905-10.237,0-14.143l-34.661-34.661
			v-64.344l150.918,150.918l-32.172,32.172l-31.391-31.392c-3.905-3.903-10.237-3.904-14.142,0c-3.905,3.905-3.906,10.237,0,14.143
			l38.462,38.463c1.875,1.875,4.419,2.929,7.071,2.929c2.652,0,5.196-1.054,7.071-2.929l46.315-46.314
			c1.875-1.876,2.929-4.419,2.929-7.071c0-2.652-1.054-5.195-2.929-7.071l-65.771-65.771h41.933
			C499.945,256.913,512,244.858,512,230.04z M26.873,236.913c-3.79,0-6.873-3.083-6.873-6.872v-54.255
			c0-3.79,3.083-6.873,6.873-6.873h156.19l-68.043,68.043c-0.282-0.024-0.565-0.043-0.853-0.043H26.873z M121.083,323.52
			l-32.172-32.172l109.872-109.871l32.172,32.172L121.083,323.52z M220.753,252.136L246,226.889v28.015
			c0,1.667,0.172,3.305,0.487,4.902C237.383,259.327,228.565,256.686,220.753,252.136z M246,150.922v47.682l-0.852,0.852
			l-40.437-41.164c12.381-8.024,26.885-12.358,41.788-12.358h0.006C246.178,147.558,246,149.225,246,150.922z M316.833,244.71
			c0,2.291-1.552,4.278-3.775,4.833l-40.872,10.194c-2.052,0.514-3.558-0.35-4.272-0.907c-0.715-0.559-1.915-1.812-1.915-3.925
			V150.922c0-2.114,1.2-3.367,1.915-3.925c0.562-0.439,1.611-1.064,3.03-1.064c0.387,0,0.802,0.047,1.242,0.156l40.872,10.194
			c2.223,0.555,3.775,2.542,3.775,4.833V244.71z M423.195,236.913l-68.001-68h129.934c3.789,0,6.872,3.083,6.872,6.873v54.255
			c0,3.789-3.083,6.872-6.872,6.872H423.195z"/>
	</g>
</g>
<g>
	<g>
		<path d="M396.243,302.592c-1.86-1.861-4.44-2.93-7.07-2.93s-5.21,1.069-7.07,2.93c-1.86,1.86-2.93,4.44-2.93,7.07
			s1.07,5.21,2.93,7.069c1.86,1.87,4.44,2.931,7.07,2.931s5.21-1.061,7.07-2.931c1.86-1.859,2.93-4.439,2.93-7.069
			S398.103,304.452,396.243,302.592z"/>
	</g>
</g>
<g>
</g>
<g>
</g>
<g>
</g>
<g>
</g>
<g>
</g>
<g>
</g>
<g>
</g>
<g>
</g>
<g>
</g>
<g>
</g>
<g>
</g>
<g>
</g>
<g>
</g>
<g>
</g>
<g>
</g>
</svg>
